<svg width="12" height="16" viewBox="0 0 12 16" fill="none" xmlns="http://www.w3.org/2000/svg">
<path fill-rule="evenodd" clip-rule="evenodd" d="M1.22286 15.7714C1.5637 15.7714 1.84 15.4951 1.84 15.1543L1.84 9.39793L10.3472 14.4679C10.4232 14.5132 10.5093 14.537 10.597 14.5371C10.6848 14.5372 10.771 14.5135 10.847 14.4684C10.923 14.4234 10.9861 14.3585 11.0301 14.2803C11.074 14.2021 11.0971 14.1134 11.0971 14.0231L11.0971 2.70858C11.0971 2.57218 11.0445 2.44136 10.9508 2.34491C10.8571 2.24846 10.73 2.19428 10.5975 2.19428C10.5096 2.1943 10.4233 2.21825 10.3472 2.26371L1.84 7.33372L1.84 1.57714C1.84 1.2363 1.5637 0.959995 1.22286 0.959995C0.88202 0.959995 0.605715 1.2363 0.605715 1.57714L0.605717 8.36583L0.605717 15.1543C0.605717 15.4951 0.882021 15.7714 1.22286 15.7714Z" fill="white"/>
</svg>
