<svg width="38" height="39" viewBox="0 0 38 39" fill="none" xmlns="http://www.w3.org/2000/svg">
<path d="M35.9025 0.0605469H2.09581C0.938171 0.0611268 -0.00028985 1.00017 6.71545e-08 2.1581V35.9647C0.000579901 37.1224 0.939621 38.0608 2.09755 38.0605H35.9025C37.0607 38.0608 37.9997 37.1221 38 35.9639C38 35.9642 38 35.9636 38 35.9639V2.15636C37.9994 0.998718 37.0604 0.060257 35.9025 0.0605469Z" fill="white"/>
<path d="M26.2363 38.0607V23.3653H31.1904L31.9326 17.6134H26.2363V13.95C26.2363 12.2885 26.6976 11.1564 29.0801 11.1564H32.0996V6.0257C31.5743 5.95583 29.7719 5.79956 27.6746 5.79956C23.2957 5.79956 20.2988 8.47144 20.2988 13.3803V17.6134H15.3633V23.3653H20.2988V38.0607H26.2363Z" fill="#181836"/>
</svg>
