<svg width="38" height="39" viewBox="0 0 38 39" fill="none" xmlns="http://www.w3.org/2000/svg">
<path d="M3.31242 2.64635C0.404837 5.7481 0.999921 9.04301 0.999921 19.0528C0.999921 27.3653 -0.412246 35.6984 6.9785 37.6602C9.28638 38.2698 29.735 38.2698 32.0398 37.657C35.117 36.8416 37.6207 34.2782 37.9629 29.8084C38.0107 29.1846 38.0107 8.93218 37.9614 8.29568C37.5975 3.5346 34.7439 0.79068 30.9838 0.234929C30.122 0.106679 29.9493 0.0686794 25.5278 0.0607628C9.84446 0.0686794 6.40655 -0.648571 3.31242 2.64635Z" fill="url(#paint0_linear)"/>
<path d="M19.4969 5.03087C13.8991 5.03087 8.58345 4.51946 6.55308 9.87113C5.71441 12.0815 5.8362 14.952 5.8362 19.0624C5.8362 22.6692 5.72366 26.0591 6.55308 28.252C8.57883 33.6069 13.9377 33.0939 19.4938 33.0939C24.8542 33.0939 30.3811 33.667 32.4361 28.252C33.2763 26.0195 33.153 23.1917 33.153 19.0624C33.153 13.5809 33.4475 10.0421 30.859 7.38529C28.2382 4.69362 24.6939 5.03087 19.4907 5.03087H19.4969ZM18.2728 7.55946C29.9494 7.54046 31.4356 6.20729 30.6154 24.7275C30.324 31.2778 25.4678 30.559 19.4985 30.559C8.61428 30.559 8.30133 30.2391 8.30133 19.056C8.30133 7.74313 9.16466 7.56579 18.2728 7.55629V7.55946ZM26.789 9.88854C25.884 9.88854 25.1502 10.6422 25.1502 11.5716C25.1502 12.501 25.884 13.2547 26.789 13.2547C27.694 13.2547 28.4278 12.501 28.4278 11.5716C28.4278 10.6422 27.694 9.88854 26.789 9.88854ZM19.4969 11.8566C15.6227 11.8566 12.4823 15.0835 12.4823 19.0624C12.4823 23.0413 15.6227 26.2665 19.4969 26.2665C23.3711 26.2665 26.51 23.0413 26.51 19.0624C26.51 15.0835 23.3711 11.8566 19.4969 11.8566ZM19.4969 14.3852C25.5171 14.3852 25.5248 23.7395 19.4969 23.7395C13.4782 23.7395 13.469 14.3852 19.4969 14.3852Z" fill="#171836"/>
<defs>
<linearGradient id="paint0_linear" x1="3.38337" y1="35.6337" x2="38.5533" y2="5.99556" gradientUnits="userSpaceOnUse">
<stop stop-color="white"/>
<stop offset="0.5" stop-color="white"/>
<stop offset="1" stop-color="white"/>
</linearGradient>
</defs>
</svg>
