<svg width="53" height="50" viewBox="0 0 53 50" fill="none" xmlns="http://www.w3.org/2000/svg">
<path d="M33.8271 29.4547L33.8442 29.4376V29.4035V20.6416L33.7929 20.6074L26.2267 16.235L26.2096 16.2521L18.6091 20.6416V20.6587V29.4035V29.4376L26.2267 33.8442L33.81 29.4547" stroke="white" stroke-width="0.75" stroke-miterlimit="10"/>
<path d="M37.6188 5.32115L35.1252 1H26.3121L26.2608 1.0854L21.9055 8.61752L24.0746 12.358L26.2608 16.1496L26.3121 16.235H31.3164H35.1252L37.3797 12.3067L39.5146 8.61752L37.6188 5.32115Z" stroke="white" stroke-width="0.75" stroke-miterlimit="10"/>
<path d="M37.6188 5.32114H33.8271L29.4205 12.9387L31.3164 16.235L33.8271 20.5733H34.0833H42.6231L47.0297 12.9387L42.6231 5.32114H37.6188Z" stroke="white" stroke-width="0.75" stroke-miterlimit="10"/>
<path d="M38.4727 12.9387L34.0833 20.5733L36.5086 24.7919L38.4727 28.1908H42.6231H47.2858L49.0109 25.1677L51.6753 20.5733L47.2858 12.9387H47.0296H38.4727Z" stroke="white" stroke-width="0.75" stroke-miterlimit="10"/>
<path d="M49.0109 25.1677L47.0638 21.7689H38.2507L36.5086 24.792L33.8442 29.4035L33.8783 29.4547L38.2507 37.021H46.9955H47.0638L51.4533 29.4035L49.0109 25.1677Z" stroke="white" stroke-width="0.75" stroke-miterlimit="10"/>
<path d="M33.8271 29.4547H33.81L31.1968 34.0149L29.4205 37.0722L33.8271 44.7068H37.7554H42.6231L47.0297 37.0722L46.9955 37.021L42.6231 29.4547H33.8783H33.8271Z" stroke="white" stroke-width="0.75" stroke-miterlimit="10"/>
<path d="M26.3121 34.015L24.1259 37.8237L21.9055 41.6325L26.3121 49.25H35.1252L37.7554 44.7068L39.5146 41.6325L37.2089 37.6358L35.1252 34.015H31.1968H26.3121Z" stroke="white" stroke-width="0.75" stroke-miterlimit="10"/>
<path d="M17.516 34.015L13.1094 41.6325L14.954 44.8093L17.516 49.25H26.312L30.7185 41.6325L26.312 34.015H26.2266H21.1881H17.516Z" stroke="white" stroke-width="0.75" stroke-miterlimit="10"/>
<path d="M14.2026 29.5572H9.83019L5.50904 37.021L5.42365 37.1918L9.83019 44.8093H14.9541H18.6262L23.0157 37.1918L21.1882 34.0149L18.6262 29.5572H18.5067H14.2026Z" stroke="white" stroke-width="0.75" stroke-miterlimit="10"/>
<path d="M14.2026 21.7689H5.38947L3.51071 25.0311L1 29.4035L5.38947 37.021H5.50903H14.2026L16.3375 33.3318L18.5066 29.5572L18.6091 29.4035L16.0813 25.0311L14.2026 21.7689Z" stroke="white" stroke-width="0.75" stroke-miterlimit="10"/>
<path d="M5.50903 13.0411H5.38947L1 20.6587L3.51071 25.031L5.38947 28.2933H14.2026L16.0813 25.031L18.6091 20.6587L18.5579 20.5733L16.3888 16.8157L14.2026 13.0411H5.50903Z" stroke="white" stroke-width="0.75" stroke-miterlimit="10"/>
<path d="M14.9028 5.32114H9.84723L5.45776 12.9387L5.509 13.0411L9.84723 20.5733H14.2025H18.5579H18.6603L21.154 16.235L23.0669 12.9387L18.6603 5.32114H14.9028Z" stroke="white" stroke-width="0.75" stroke-miterlimit="10"/>
<path d="M26.2608 1.0854L26.2096 1H17.3965L14.9029 5.32115L12.9899 8.61752L17.3965 16.235H21.154H26.2096L26.2608 16.1496L30.599 8.61752L26.2608 1.0854Z" stroke="white" stroke-width="0.75" stroke-miterlimit="10"/>
</svg>
