<svg width="11" height="16" viewBox="0 0 11 16" fill="none" xmlns="http://www.w3.org/2000/svg">
<path fill-rule="evenodd" clip-rule="evenodd" d="M10.0114 0.959991C9.67059 0.959991 9.39429 1.2363 9.39429 1.57713V7.33348L0.887061 2.26348C0.811135 2.21823 0.724975 2.19437 0.637245 2.19428C0.549515 2.19419 0.463309 2.21788 0.387298 2.26297C0.311286 2.30807 0.248149 2.37297 0.204237 2.45115C0.160325 2.52933 0.137185 2.61803 0.137146 2.70834V14.0228C0.137146 14.1592 0.189783 14.2901 0.283479 14.3865C0.377174 14.483 0.504251 14.5371 0.636756 14.5371C0.724679 14.5371 0.811032 14.5132 0.887061 14.4677L9.39429 9.3977V15.1543C9.39429 15.4951 9.67059 15.7714 10.0114 15.7714C10.3523 15.7714 10.6286 15.4951 10.6286 15.1543V8.36559V1.57713C10.6286 1.2363 10.3523 0.959991 10.0114 0.959991Z" fill="white"/>
</svg>
