<svg width="37" height="38" viewBox="0 0 37 38" fill="none" xmlns="http://www.w3.org/2000/svg">
<path d="M18.5 0.623291C8.28272 0.623291 0 8.92437 0 19.1643C0 29.4042 8.28272 37.7053 18.5 37.7053C28.7173 37.7053 37 29.4042 37 19.1643C37 8.92437 28.7173 0.623291 18.5 0.623291ZM26.5515 27.5314C26.3162 27.9348 25.8929 28.1597 25.458 28.1598C25.2412 28.1598 25.0216 28.1038 24.8209 27.9864C21.4964 26.0392 17.6558 25.7262 15.0187 25.8066C12.0976 25.8957 9.95539 26.4736 9.9341 26.4795C9.26073 26.6638 8.56486 26.2667 8.38014 25.5919C8.19551 24.9172 8.59038 24.2202 9.26341 24.0344C9.35997 24.0078 11.6652 23.3803 14.8708 23.2743C16.759 23.2119 18.5767 23.3438 20.2729 23.6662C22.4211 24.0747 24.3808 24.7916 26.0975 25.7971C26.7008 26.1503 26.9039 26.9269 26.5515 27.5314ZM28.9034 22.6358C28.6248 23.1136 28.1233 23.38 27.6082 23.3801C27.3514 23.3801 27.0912 23.3139 26.8535 23.1747C22.9157 20.8682 18.3662 20.4977 15.2426 20.5928C11.7824 20.6983 9.2449 21.3829 9.21972 21.3898C8.42227 21.6079 7.59783 21.1378 7.37903 20.3385C7.16031 19.5392 7.62812 18.7138 8.4253 18.4936C8.53968 18.462 11.2702 17.7187 15.0674 17.5932C17.3041 17.5193 19.4572 17.6755 21.4663 18.0574C24.011 18.5413 26.3322 19.3905 28.3657 20.5814C29.0803 20.9999 29.321 21.9197 28.9034 22.6358ZM30.3492 18.1845C30.0342 18.1845 29.7151 18.1033 29.4234 17.9325C20.0615 12.4491 7.91726 15.709 7.7957 15.7426C6.81691 16.0129 5.80508 15.4368 5.53548 14.4559C5.2658 13.475 5.84063 12.4609 6.81934 12.1907C6.95958 12.1519 10.3089 11.2402 14.9665 11.0862C17.7103 10.9957 20.3512 11.1872 22.8155 11.6557C25.9368 12.2491 28.7842 13.2907 31.2783 14.7516C32.1548 15.2649 32.4501 16.3931 31.9379 17.2715C31.5961 17.8577 30.9811 18.1845 30.3492 18.1845Z" fill="#00D95F"/>
</svg>
