<svg width="37" height="38" viewBox="0 0 37 38" fill="none" xmlns="http://www.w3.org/2000/svg">
<path d="M18.5 0.0605469C8.28272 0.0605469 0 8.36163 0 18.6016C0 28.8415 8.28272 37.1426 18.5 37.1426C28.7173 37.1426 37 28.8415 37 18.6016C37 8.36163 28.7173 0.0605469 18.5 0.0605469ZM26.5515 26.9686C26.3162 27.372 25.8929 27.5969 25.458 27.597C25.2412 27.597 25.0216 27.5411 24.8209 27.4236C21.4964 25.4764 17.6558 25.1635 15.0187 25.2439C12.0976 25.3329 9.95539 25.9109 9.9341 25.9167C9.26073 26.1011 8.56486 25.704 8.38014 25.0292C8.19551 24.3545 8.59038 23.6575 9.26341 23.4717C9.35997 23.4451 11.6652 22.8175 14.8708 22.7116C16.759 22.6491 18.5767 22.781 20.2729 23.1035C22.4211 23.5119 24.3808 24.2288 26.0975 25.2343C26.7008 25.5876 26.9039 26.3642 26.5515 26.9686ZM28.9034 22.073C28.6248 22.5509 28.1233 22.8173 27.6082 22.8174C27.3514 22.8174 27.0912 22.7512 26.8535 22.6119C22.9157 20.3054 18.3662 19.9349 15.2426 20.03C11.7824 20.1356 9.2449 20.8201 9.21972 20.8271C8.42227 21.0452 7.59783 20.5751 7.37903 19.7758C7.16031 18.9765 7.62812 18.151 8.4253 17.9309C8.53968 17.8993 11.2702 17.1559 15.0674 17.0305C17.3041 16.9566 19.4572 17.1127 21.4663 17.4947C24.011 17.9785 26.3322 18.8277 28.3657 20.0187C29.0803 20.4371 29.321 21.357 28.9034 22.073ZM30.3492 17.6217C30.0342 17.6217 29.7151 17.5406 29.4234 17.3698C20.0615 11.8863 7.91726 15.1462 7.7957 15.1799C6.81691 15.4502 5.80508 14.874 5.53548 13.8932C5.2658 12.9123 5.84063 11.8981 6.81934 11.6279C6.95958 11.5892 10.3089 10.6774 14.9665 10.5235C17.7103 10.433 20.3512 10.6244 22.8155 11.0929C25.9368 11.6864 28.7842 12.728 31.2783 14.1889C32.1548 14.7022 32.4501 15.8304 31.9379 16.7088C31.5961 17.2949 30.9811 17.6217 30.3492 17.6217Z" fill="white"/>
</svg>
