<svg width="38" height="32" viewBox="0 0 38 32" fill="none" xmlns="http://www.w3.org/2000/svg">
<path d="M38 4.27817C36.5869 4.89805 35.0811 5.30892 33.5112 5.50842C35.1262 4.54417 36.3589 3.02892 36.9384 1.20255C35.4326 2.1003 33.7701 2.73442 31.9984 3.0883C30.5686 1.56592 28.5309 0.623047 26.3079 0.623047C21.9949 0.623047 18.5226 4.1238 18.5226 8.41542C18.5226 9.03292 18.5749 9.62667 18.7031 10.1919C12.2265 9.87605 6.49563 6.77192 2.64575 2.0433C1.97362 3.20942 1.57938 4.54417 1.57938 5.98105C1.57938 8.67905 2.96875 11.0707 5.03975 12.4553C3.78813 12.4315 2.56025 12.0682 1.52 11.4958C1.52 11.5195 1.52 11.5504 1.52 11.5813C1.52 15.367 4.22037 18.5115 7.7615 19.2359C7.12737 19.4093 6.43625 19.4924 5.719 19.4924C5.22025 19.4924 4.71675 19.4639 4.24412 19.3594C5.2535 22.4445 8.11775 24.7127 11.5235 24.7863C8.873 26.8597 5.50763 28.1089 1.86438 28.1089C1.2255 28.1089 0.61275 28.0804 0 28.002C3.45087 30.2274 7.54063 31.498 11.951 31.498C26.2865 31.498 34.124 19.623 34.124 9.3298C34.124 8.98542 34.1121 8.65292 34.0955 8.3228C35.6416 7.22555 36.9408 5.85517 38 4.27817Z" fill="white"/>
</svg>
