<svg width="19" height="19" viewBox="0 0 19 19" fill="none" xmlns="http://www.w3.org/2000/svg">
<g clip-path="url(#clip0)">
<path d="M11.0415 0.695772C10.8211 0.590638 10.5615 0.618505 10.3715 0.771772L4.2104 5.70037H1.26667C0.568733 5.70037 0 6.26911 0 6.96704V12.0337C0 12.7316 0.568733 13.3004 1.26667 13.3004H4.2104L10.3702 18.229C10.4855 18.3202 10.6261 18.367 10.7667 18.367C10.8604 18.367 10.9541 18.3468 11.0415 18.305C11.2607 18.1986 11.4 17.9769 11.4 17.7337V1.26704C11.4 1.02384 11.2607 0.802172 11.0415 0.695772ZM3.8 12.0337H1.26667V6.96704H3.8V12.0337ZM10.1333 16.4151L5.06667 12.3618V6.63897L10.1333 2.58564V16.4151Z" fill="white"/>
<path d="M14.6072 5.02143C14.3577 4.77443 13.9574 4.77823 13.7117 5.0265C13.4659 5.27603 13.4685 5.6763 13.7167 5.92203C14.6731 6.86823 15.2 8.1387 15.2 9.50036C15.2 10.862 14.6731 12.1325 13.7167 13.0787C13.4672 13.3244 13.4647 13.7247 13.7117 13.9742C13.8358 14.0996 13.9992 14.1617 14.1613 14.1617C14.3222 14.1617 14.4831 14.1009 14.6072 13.978C15.8067 12.7937 16.4667 11.204 16.4667 9.50036C16.4667 7.7967 15.8067 6.20703 14.6072 5.02143Z" fill="white"/>
<path d="M16.3932 3.2367C16.1449 2.99097 15.7434 2.99223 15.4977 3.2405C15.2519 3.48877 15.2532 3.8903 15.5015 4.13603C16.9404 5.56357 17.7333 7.46863 17.7333 9.50037C17.7333 11.5321 16.9404 13.4372 15.5015 14.8647C15.2532 15.1104 15.2519 15.512 15.4977 15.7602C15.6218 15.8856 15.7839 15.9477 15.9473 15.9477C16.1082 15.9477 16.2691 15.8869 16.3932 15.764C18.0741 14.0971 19 11.8728 19 9.50037C19 7.1279 18.0741 4.90363 16.3932 3.2367Z" fill="white"/>
</g>
<defs>
<clipPath id="clip0">
<rect width="19" height="19" fill="white"/>
</clipPath>
</defs>
</svg>
