<svg width="35" height="38" viewBox="0 0 35 38" fill="none" xmlns="http://www.w3.org/2000/svg">
<path d="M17.4999 0.0605469C27.1655 0.0605469 35 8.34392 35 18.5606C35 28.7773 27.1655 37.0605 17.4999 37.0605C7.83442 37.0605 0 28.7772 0 18.5606C0 8.34404 7.83454 0.0605469 17.4999 0.0605469Z" fill="white"/>
<path d="M17.0778 15.093C17.6311 15.093 18.0644 14.9068 18.3816 14.6421C18.6966 14.3761 18.8541 14.0143 18.8541 13.5494V10.7443C18.8541 10.3315 18.6933 9.99038 18.3728 9.72798C18.0501 9.46546 17.6378 9.33489 17.1324 9.33489C16.5801 9.33489 16.1382 9.4586 15.8112 9.70716C15.4831 9.95685 15.319 10.2899 15.319 10.7119V13.5262C15.319 13.9886 15.4787 14.354 15.798 14.6281C16.1173 14.9022 16.5452 15.093 17.0778 15.093ZM16.4993 10.8485C16.4993 10.742 16.5518 10.6565 16.6557 10.5883C16.7607 10.5224 16.8964 10.49 17.0626 10.49C17.2442 10.49 17.3907 10.5224 17.5013 10.5883C17.6129 10.6565 17.6676 10.7421 17.6676 10.8485V13.5147C17.6676 13.6466 17.6129 13.7506 17.5034 13.8258C17.3941 13.8998 17.2475 13.9379 17.0626 13.9379C16.8822 13.9379 16.7422 13.9021 16.6448 13.8269C16.5485 13.754 16.4993 13.65 16.4993 13.5147V10.8485ZM20.7397 15.0895C20.9344 15.0895 21.1324 14.9715 21.338 14.8537C21.5459 14.7334 21.7438 14.5576 21.9342 14.3287V14.952H22.9678V9.32677H21.9342V13.5968C21.838 13.7182 21.7308 13.8188 21.6159 13.8986C21.4989 13.9772 21.4027 14.0177 21.3272 14.0177C21.2299 14.0177 21.1588 13.9887 21.1172 13.9275C21.0735 13.8686 21.0495 13.7726 21.0495 13.6407V9.32791H20.018V14.0281C20.018 14.3634 20.0804 14.6144 20.1996 14.7809C20.3208 14.9484 20.5002 15.0895 20.7397 15.0895ZM23.7454 17.4148H11.2547C9.26846 17.4148 7.6595 19.0509 7.6595 21.0663V24.1535C7.6595 26.17 9.26846 27.8061 11.2547 27.8061H23.7452C25.7304 27.8061 27.3404 26.17 27.3404 24.1535V21.0663C27.3405 19.0508 25.7305 17.4148 23.7454 17.4148ZM13.1129 20.5482H12.0083V25.3837H10.9398V20.5482H9.83505V19.7238H13.113C13.1129 19.7238 13.1129 20.5482 13.1129 20.5482ZM16.4095 25.4507H15.2578V24.9489C15.0435 25.134 14.8236 25.2761 14.5918 25.371C14.3631 25.4704 14.14 25.5178 13.9235 25.5178C13.6567 25.5178 13.4576 25.4496 13.322 25.3121C13.1885 25.1768 13.1196 24.9733 13.1196 24.7015V20.8836H14.2713V24.3859C14.2713 24.4946 14.2954 24.571 14.3414 24.6195C14.3917 24.6691 14.4715 24.6911 14.5788 24.6911C14.6619 24.6911 14.7713 24.6599 14.9003 24.5951C15.0304 24.5315 15.1497 24.4506 15.258 24.35V20.8824H16.4097C16.4095 20.8824 16.4095 25.4507 16.4095 25.4507ZM20.7692 24.5812C20.7692 24.8807 20.6794 25.1085 20.5012 25.2693C20.3251 25.4299 20.0649 25.5085 19.7291 25.5085C19.5049 25.5085 19.3058 25.4784 19.1329 25.4172C18.9591 25.356 18.795 25.2611 18.6462 25.1304V25.4542H17.4967V19.7238H18.6462V21.5704C18.8016 21.4432 18.9645 21.3438 19.134 21.2767C19.3079 21.2085 19.4829 21.1762 19.659 21.1762C20.0189 21.1762 20.2934 21.2652 20.4826 21.4444C20.674 21.6247 20.7692 21.8896 20.7692 22.2353C20.7692 22.2351 20.7692 24.5812 20.7692 24.5812ZM25.1508 23.292H23.0289V24.1175C23.0289 24.3477 23.0639 24.5072 23.1372 24.5974C23.2116 24.6864 23.3374 24.7304 23.5135 24.7304C23.6995 24.7304 23.8263 24.6923 23.9007 24.6171C23.9729 24.5407 24.0123 24.3754 24.0123 24.1164V23.9175H25.1531V24.1418C25.1531 24.5904 25.0163 24.9281 24.7341 25.1558C24.4564 25.3824 24.0407 25.4957 23.4884 25.4957C22.9907 25.4957 22.5992 25.3754 22.3137 25.135C22.0294 24.8969 21.8849 24.5638 21.8849 24.1429V22.1749C21.8849 21.7968 22.0424 21.4847 22.3575 21.2454C22.6714 21.0072 23.0739 20.8881 23.5715 20.8881C24.079 20.8881 24.4695 20.9991 24.7429 21.22C25.0153 21.4408 25.1509 21.7599 25.1509 22.1739C25.1508 22.1739 25.1508 23.292 25.1508 23.292ZM12.4939 15.1058H13.7988V11.7445L15.318 7.00391H13.9913L13.184 10.2438H13.1009L12.2544 7.00391H10.9386L12.4938 11.896C12.4939 11.896 12.4939 15.1058 12.4939 15.1058ZM19.122 21.8466L18.8803 21.8883L18.6452 22.0167V24.6506C18.7371 24.7188 18.8278 24.7709 18.9154 24.7997L19.1899 24.8448C19.3299 24.8448 19.4316 24.8158 19.4972 24.7546C19.5617 24.6957 19.5956 24.5985 19.5956 24.4655V22.2814C19.5956 22.1368 19.5573 22.0293 19.4764 21.9565C19.3933 21.8837 19.2763 21.8466 19.122 21.8466Z" fill="#181936"/>
<path d="M23.5747 21.6548C23.3975 21.6548 23.2717 21.6942 23.1941 21.7751C23.1175 21.8525 23.0803 21.9844 23.0803 22.1681V22.6099H24.0614V22.1681C24.0614 21.9844 24.0209 21.8537 23.9444 21.7751C23.8688 21.6942 23.7431 21.6548 23.5747 21.6548Z" fill="#181936"/>
</svg>
